G04 #@! TF.FileFunction,Profile,NP*
%FSLAX46Y46*%
G04 Gerber Fmt 4.6, Leading zero omitted, Abs format (unit mm)*
G04 Created by KiCad (PCBNEW 4.0.0-rc2-stable) date Sun 15 Nov 2015 10:20:30 AEDT*
%MOMM*%
G01*
G04 APERTURE LIST*
%ADD10C,0.100000*%
%ADD11C,0.150000*%
G04 APERTURE END LIST*
D10*
D11*
X187960000Y-118110000D02*
X187960000Y-123190000D01*
X184150000Y-114300000D02*
X187960000Y-118110000D01*
X184150000Y-99060000D02*
X184150000Y-114300000D01*
X185420000Y-97790000D02*
X184150000Y-99060000D01*
X124460000Y-118110000D02*
X124460000Y-123190000D01*
X128270000Y-114300000D02*
X124460000Y-118110000D01*
X128270000Y-99060000D02*
X128270000Y-114300000D01*
X127000000Y-97790000D02*
X128270000Y-99060000D01*
X187960000Y-95250000D02*
X187960000Y-90170000D01*
X185420000Y-97790000D02*
X187960000Y-95250000D01*
X124460000Y-95250000D02*
X124460000Y-90170000D01*
X127000000Y-97790000D02*
X124460000Y-95250000D01*
X187960000Y-72390000D02*
X187960000Y-90170000D01*
X187960000Y-140970000D02*
X187960000Y-123190000D01*
X124460000Y-140970000D02*
X124460000Y-123190000D01*
X124460000Y-72390000D02*
X124460000Y-90170000D01*
X127000000Y-69850000D02*
X124460000Y-72390000D01*
X185420000Y-69850000D02*
X127000000Y-69850000D01*
X187960000Y-72390000D02*
X185420000Y-69850000D01*
X185420000Y-143510000D02*
X187960000Y-140970000D01*
X127000000Y-143510000D02*
X185420000Y-143510000D01*
X124460000Y-140970000D02*
X127000000Y-143510000D01*
M02*
