G04 #@! TF.FileFunction,Legend,Top*
%FSLAX46Y46*%
G04 Gerber Fmt 4.6, Leading zero omitted, Abs format (unit mm)*
G04 Created by KiCad (PCBNEW 4.0.0-rc2-stable) date Sun 15 Nov 2015 10:20:30 AEDT*
%MOMM*%
G01*
G04 APERTURE LIST*
%ADD10C,0.100000*%
%ADD11C,0.200000*%
%ADD12C,0.300000*%
%ADD13C,0.500000*%
%ADD14C,0.150000*%
%ADD15C,0.254000*%
G04 APERTURE END LIST*
D10*
D11*
X155233810Y-107132381D02*
X155233810Y-106132381D01*
X156281429Y-107037143D02*
X156233810Y-107084762D01*
X156090953Y-107132381D01*
X155995715Y-107132381D01*
X155852857Y-107084762D01*
X155757619Y-106989524D01*
X155710000Y-106894286D01*
X155662381Y-106703810D01*
X155662381Y-106560952D01*
X155710000Y-106370476D01*
X155757619Y-106275238D01*
X155852857Y-106180000D01*
X155995715Y-106132381D01*
X156090953Y-106132381D01*
X156233810Y-106180000D01*
X156281429Y-106227619D01*
X157233810Y-107132381D02*
X156662381Y-107132381D01*
X156948095Y-107132381D02*
X156948095Y-106132381D01*
X156852857Y-106275238D01*
X156757619Y-106370476D01*
X156662381Y-106418095D01*
D12*
X150209999Y-119649762D02*
X149257618Y-119649762D01*
X149257618Y-117649762D01*
X150876666Y-118602143D02*
X151543333Y-118602143D01*
X151829047Y-119649762D02*
X150876666Y-119649762D01*
X150876666Y-117649762D01*
X151829047Y-117649762D01*
X152686190Y-119649762D02*
X152686190Y-117649762D01*
X153162381Y-117649762D01*
X153448095Y-117745000D01*
X153638571Y-117935476D01*
X153733810Y-118125952D01*
X153829048Y-118506905D01*
X153829048Y-118792619D01*
X153733810Y-119173571D01*
X153638571Y-119364048D01*
X153448095Y-119554524D01*
X153162381Y-119649762D01*
X152686190Y-119649762D01*
X157352858Y-119459286D02*
X157257620Y-119554524D01*
X156971905Y-119649762D01*
X156781429Y-119649762D01*
X156495715Y-119554524D01*
X156305239Y-119364048D01*
X156210000Y-119173571D01*
X156114762Y-118792619D01*
X156114762Y-118506905D01*
X156210000Y-118125952D01*
X156305239Y-117935476D01*
X156495715Y-117745000D01*
X156781429Y-117649762D01*
X156971905Y-117649762D01*
X157257620Y-117745000D01*
X157352858Y-117840238D01*
X158210000Y-117649762D02*
X158210000Y-119268810D01*
X158305239Y-119459286D01*
X158400477Y-119554524D01*
X158590953Y-119649762D01*
X158971905Y-119649762D01*
X159162381Y-119554524D01*
X159257620Y-119459286D01*
X159352858Y-119268810D01*
X159352858Y-117649762D01*
X160971905Y-118602143D02*
X161257619Y-118697381D01*
X161352858Y-118792619D01*
X161448096Y-118983095D01*
X161448096Y-119268810D01*
X161352858Y-119459286D01*
X161257619Y-119554524D01*
X161067143Y-119649762D01*
X160305238Y-119649762D01*
X160305238Y-117649762D01*
X160971905Y-117649762D01*
X161162381Y-117745000D01*
X161257619Y-117840238D01*
X161352858Y-118030714D01*
X161352858Y-118221190D01*
X161257619Y-118411667D01*
X161162381Y-118506905D01*
X160971905Y-118602143D01*
X160305238Y-118602143D01*
X162305238Y-118602143D02*
X162971905Y-118602143D01*
X163257619Y-119649762D02*
X162305238Y-119649762D01*
X162305238Y-117649762D01*
X163257619Y-117649762D01*
D11*
X175260000Y-99060000D02*
X175260000Y-101600000D01*
X170180000Y-99060000D02*
X175260000Y-99060000D01*
X170180000Y-101600000D02*
X170180000Y-99060000D01*
X175260000Y-114300000D02*
X175260000Y-111760000D01*
X170180000Y-114300000D02*
X175260000Y-114300000D01*
X170180000Y-111760000D02*
X170180000Y-114300000D01*
X137160000Y-114300000D02*
X137160000Y-111760000D01*
X142240000Y-114300000D02*
X137160000Y-114300000D01*
X142240000Y-113665000D02*
X142240000Y-114300000D01*
X142240000Y-111760000D02*
X142240000Y-113665000D01*
X137160000Y-99060000D02*
X137160000Y-101600000D01*
X142240000Y-99060000D02*
X137160000Y-99060000D01*
X142240000Y-101600000D02*
X142240000Y-99060000D01*
X137160000Y-111760000D02*
X139700000Y-111760000D01*
X137160000Y-101600000D02*
X137160000Y-111760000D01*
X139700000Y-101600000D02*
X137160000Y-101600000D01*
D12*
X137887143Y-103508571D02*
X139087143Y-103508571D01*
X139087143Y-103794286D01*
X139030000Y-103965714D01*
X138915714Y-104080000D01*
X138801429Y-104137143D01*
X138572857Y-104194286D01*
X138401429Y-104194286D01*
X138172857Y-104137143D01*
X138058571Y-104080000D01*
X137944286Y-103965714D01*
X137887143Y-103794286D01*
X137887143Y-103508571D01*
X138230000Y-104651428D02*
X138230000Y-105222857D01*
X137887143Y-104537143D02*
X139087143Y-104937143D01*
X137887143Y-105337143D01*
X139087143Y-105565714D02*
X139087143Y-106251428D01*
X137887143Y-105908571D02*
X139087143Y-105908571D01*
X138230000Y-106594285D02*
X138230000Y-107165714D01*
X137887143Y-106480000D02*
X139087143Y-106880000D01*
X137887143Y-107280000D01*
X137887143Y-108594285D02*
X139087143Y-108594285D01*
X137887143Y-109165714D02*
X139087143Y-109165714D01*
X137887143Y-109851429D01*
X139087143Y-109851429D01*
D11*
X175260000Y-111760000D02*
X172720000Y-111760000D01*
X175260000Y-101600000D02*
X175260000Y-111760000D01*
X172720000Y-101600000D02*
X175260000Y-101600000D01*
D12*
X174532857Y-110651429D02*
X173332857Y-110651429D01*
X173332857Y-110365714D01*
X173390000Y-110194286D01*
X173504286Y-110080000D01*
X173618571Y-110022857D01*
X173847143Y-109965714D01*
X174018571Y-109965714D01*
X174247143Y-110022857D01*
X174361429Y-110080000D01*
X174475714Y-110194286D01*
X174532857Y-110365714D01*
X174532857Y-110651429D01*
X174190000Y-109508572D02*
X174190000Y-108937143D01*
X174532857Y-109622857D02*
X173332857Y-109222857D01*
X174532857Y-108822857D01*
X173332857Y-108594286D02*
X173332857Y-107908572D01*
X174532857Y-108251429D02*
X173332857Y-108251429D01*
X174190000Y-107565715D02*
X174190000Y-106994286D01*
X174532857Y-107680000D02*
X173332857Y-107280000D01*
X174532857Y-106880000D01*
X173332857Y-105337143D02*
X173332857Y-105108572D01*
X173390000Y-104994286D01*
X173504286Y-104880000D01*
X173732857Y-104822858D01*
X174132857Y-104822858D01*
X174361429Y-104880000D01*
X174475714Y-104994286D01*
X174532857Y-105108572D01*
X174532857Y-105337143D01*
X174475714Y-105451429D01*
X174361429Y-105565715D01*
X174132857Y-105622858D01*
X173732857Y-105622858D01*
X173504286Y-105565715D01*
X173390000Y-105451429D01*
X173332857Y-105337143D01*
X173332857Y-104308572D02*
X174304286Y-104308572D01*
X174418571Y-104251429D01*
X174475714Y-104194286D01*
X174532857Y-104080000D01*
X174532857Y-103851429D01*
X174475714Y-103737143D01*
X174418571Y-103680000D01*
X174304286Y-103622857D01*
X173332857Y-103622857D01*
X173332857Y-103222857D02*
X173332857Y-102537143D01*
X174532857Y-102880000D02*
X173332857Y-102880000D01*
X180403572Y-100437143D02*
X181546429Y-100437143D01*
X177863572Y-100437143D02*
X179006429Y-100437143D01*
X178435000Y-101008571D02*
X178435000Y-99865714D01*
D11*
X182245000Y-101600000D02*
X177165000Y-101600000D01*
X182245000Y-99060000D02*
X182245000Y-101600000D01*
X177165000Y-101600000D02*
X177165000Y-99060000D01*
X177165000Y-111760000D02*
X177165000Y-114300000D01*
X182245000Y-111760000D02*
X177165000Y-111760000D01*
X182245000Y-114300000D02*
X182245000Y-111760000D01*
D12*
X177863572Y-113137143D02*
X179006429Y-113137143D01*
X178435000Y-113708571D02*
X178435000Y-112565714D01*
D11*
X182245000Y-114300000D02*
X177165000Y-114300000D01*
X182245000Y-119380000D02*
X182245000Y-114300000D01*
X177165000Y-119380000D02*
X182245000Y-119380000D01*
X177165000Y-114300000D02*
X177165000Y-119380000D01*
D12*
X180403572Y-113137143D02*
X181546429Y-113137143D01*
D11*
X135255000Y-101600000D02*
X135255000Y-99060000D01*
X130175000Y-101600000D02*
X135255000Y-101600000D01*
X130175000Y-99060000D02*
X130175000Y-101600000D01*
X135255000Y-111760000D02*
X135255000Y-114300000D01*
X130175000Y-111760000D02*
X135255000Y-111760000D01*
X130175000Y-114300000D02*
X130175000Y-111760000D01*
D12*
X133413572Y-113137143D02*
X134556429Y-113137143D01*
X130873572Y-113137143D02*
X132016429Y-113137143D01*
X131445000Y-113708571D02*
X131445000Y-112565714D01*
D11*
X135255000Y-114300000D02*
X130175000Y-114300000D01*
X135255000Y-119380000D02*
X135255000Y-114300000D01*
X130175000Y-119380000D02*
X135255000Y-119380000D01*
X130175000Y-114300000D02*
X130175000Y-119380000D01*
D12*
X133413572Y-100437143D02*
X134556429Y-100437143D01*
X130873572Y-100437143D02*
X132016429Y-100437143D01*
X131445000Y-101008571D02*
X131445000Y-99865714D01*
D11*
X142240000Y-101600000D02*
X139700000Y-101600000D01*
X142240000Y-111760000D02*
X142240000Y-101600000D01*
X139700000Y-111760000D02*
X142240000Y-111760000D01*
X139700000Y-101600000D02*
X139700000Y-111760000D01*
X170180000Y-111760000D02*
X170180000Y-101600000D01*
X172720000Y-111760000D02*
X170180000Y-111760000D01*
X172720000Y-101600000D02*
X172720000Y-111760000D01*
X170180000Y-101600000D02*
X172720000Y-101600000D01*
X130175000Y-99060000D02*
X130175000Y-93980000D01*
X135255000Y-99060000D02*
X130175000Y-99060000D01*
X135255000Y-93980000D02*
X135255000Y-99060000D01*
X134620000Y-93980000D02*
X135255000Y-93980000D01*
X130175000Y-93980000D02*
X134620000Y-93980000D01*
X177165000Y-99060000D02*
X177165000Y-93980000D01*
X182245000Y-99060000D02*
X177165000Y-99060000D01*
X182245000Y-93980000D02*
X182245000Y-99060000D01*
X177165000Y-93980000D02*
X182245000Y-93980000D01*
X174625000Y-119380000D02*
G75*
G03X174625000Y-119380000I-1905000J0D01*
G01*
X141605000Y-119380000D02*
G75*
G03X141605000Y-119380000I-1905000J0D01*
G01*
X163195000Y-93980000D02*
G75*
G03X163195000Y-93980000I-1905000J0D01*
G01*
X153035000Y-93980000D02*
G75*
G03X153035000Y-93980000I-1905000J0D01*
G01*
D13*
X145695000Y-110490000D02*
G75*
G03X145695000Y-110490000I-280000J0D01*
G01*
D11*
X142669525Y-121782619D02*
X142669525Y-120682619D01*
X143036191Y-121468333D01*
X143402858Y-120682619D01*
X143402858Y-121782619D01*
X144136192Y-120682619D02*
X144345715Y-120682619D01*
X144450477Y-120735000D01*
X144555239Y-120839762D01*
X144607620Y-121049286D01*
X144607620Y-121415952D01*
X144555239Y-121625476D01*
X144450477Y-121730238D01*
X144345715Y-121782619D01*
X144136192Y-121782619D01*
X144031430Y-121730238D01*
X143926668Y-121625476D01*
X143874287Y-121415952D01*
X143874287Y-121049286D01*
X143926668Y-120839762D01*
X144031430Y-120735000D01*
X144136192Y-120682619D01*
X145079049Y-121782619D02*
X145079049Y-120682619D01*
X145340954Y-120682619D01*
X145498096Y-120735000D01*
X145602858Y-120839762D01*
X145655239Y-120944524D01*
X145707620Y-121154048D01*
X145707620Y-121311190D01*
X145655239Y-121520714D01*
X145602858Y-121625476D01*
X145498096Y-121730238D01*
X145340954Y-121782619D01*
X145079049Y-121782619D01*
X146179049Y-120682619D02*
X146179049Y-121573095D01*
X146231430Y-121677857D01*
X146283811Y-121730238D01*
X146388573Y-121782619D01*
X146598096Y-121782619D01*
X146702858Y-121730238D01*
X146755239Y-121677857D01*
X146807620Y-121573095D01*
X146807620Y-120682619D01*
X147855239Y-121782619D02*
X147331430Y-121782619D01*
X147331430Y-120682619D01*
X148169525Y-121468333D02*
X148693334Y-121468333D01*
X148064763Y-121782619D02*
X148431430Y-120682619D01*
X148798096Y-121782619D01*
X149793334Y-121782619D02*
X149426668Y-121258810D01*
X149164763Y-121782619D02*
X149164763Y-120682619D01*
X149583810Y-120682619D01*
X149688572Y-120735000D01*
X149740953Y-120787381D01*
X149793334Y-120892143D01*
X149793334Y-121049286D01*
X149740953Y-121154048D01*
X149688572Y-121206429D01*
X149583810Y-121258810D01*
X149164763Y-121258810D01*
X151626667Y-121782619D02*
X151102858Y-121782619D01*
X151102858Y-120682619D01*
X151993334Y-121206429D02*
X152360000Y-121206429D01*
X152517143Y-121782619D02*
X151993334Y-121782619D01*
X151993334Y-120682619D01*
X152517143Y-120682619D01*
X152831429Y-120682619D02*
X153198096Y-121782619D01*
X153564762Y-120682619D01*
X153931429Y-121206429D02*
X154298095Y-121206429D01*
X154455238Y-121782619D02*
X153931429Y-121782619D01*
X153931429Y-120682619D01*
X154455238Y-120682619D01*
X155450476Y-121782619D02*
X154926667Y-121782619D01*
X154926667Y-120682619D01*
X157283809Y-121677857D02*
X157231428Y-121730238D01*
X157074285Y-121782619D01*
X156969523Y-121782619D01*
X156812381Y-121730238D01*
X156707619Y-121625476D01*
X156655238Y-121520714D01*
X156602857Y-121311190D01*
X156602857Y-121154048D01*
X156655238Y-120944524D01*
X156707619Y-120839762D01*
X156812381Y-120735000D01*
X156969523Y-120682619D01*
X157074285Y-120682619D01*
X157231428Y-120735000D01*
X157283809Y-120787381D01*
X157964762Y-120682619D02*
X158174285Y-120682619D01*
X158279047Y-120735000D01*
X158383809Y-120839762D01*
X158436190Y-121049286D01*
X158436190Y-121415952D01*
X158383809Y-121625476D01*
X158279047Y-121730238D01*
X158174285Y-121782619D01*
X157964762Y-121782619D01*
X157860000Y-121730238D01*
X157755238Y-121625476D01*
X157702857Y-121415952D01*
X157702857Y-121049286D01*
X157755238Y-120839762D01*
X157860000Y-120735000D01*
X157964762Y-120682619D01*
X158907619Y-121782619D02*
X158907619Y-120682619D01*
X159536190Y-121782619D01*
X159536190Y-120682619D01*
X159902857Y-120682619D02*
X160531428Y-120682619D01*
X160217143Y-121782619D02*
X160217143Y-120682619D01*
X161526666Y-121782619D02*
X161160000Y-121258810D01*
X160898095Y-121782619D02*
X160898095Y-120682619D01*
X161317142Y-120682619D01*
X161421904Y-120735000D01*
X161474285Y-120787381D01*
X161526666Y-120892143D01*
X161526666Y-121049286D01*
X161474285Y-121154048D01*
X161421904Y-121206429D01*
X161317142Y-121258810D01*
X160898095Y-121258810D01*
X162207619Y-120682619D02*
X162417142Y-120682619D01*
X162521904Y-120735000D01*
X162626666Y-120839762D01*
X162679047Y-121049286D01*
X162679047Y-121415952D01*
X162626666Y-121625476D01*
X162521904Y-121730238D01*
X162417142Y-121782619D01*
X162207619Y-121782619D01*
X162102857Y-121730238D01*
X161998095Y-121625476D01*
X161945714Y-121415952D01*
X161945714Y-121049286D01*
X161998095Y-120839762D01*
X162102857Y-120735000D01*
X162207619Y-120682619D01*
X163674285Y-121782619D02*
X163150476Y-121782619D01*
X163150476Y-120682619D01*
X165245713Y-121206429D02*
X165402856Y-121258810D01*
X165455237Y-121311190D01*
X165507618Y-121415952D01*
X165507618Y-121573095D01*
X165455237Y-121677857D01*
X165402856Y-121730238D01*
X165298094Y-121782619D01*
X164879047Y-121782619D01*
X164879047Y-120682619D01*
X165245713Y-120682619D01*
X165350475Y-120735000D01*
X165402856Y-120787381D01*
X165455237Y-120892143D01*
X165455237Y-120996905D01*
X165402856Y-121101667D01*
X165350475Y-121154048D01*
X165245713Y-121206429D01*
X164879047Y-121206429D01*
X166188571Y-120682619D02*
X166398094Y-120682619D01*
X166502856Y-120735000D01*
X166607618Y-120839762D01*
X166659999Y-121049286D01*
X166659999Y-121415952D01*
X166607618Y-121625476D01*
X166502856Y-121730238D01*
X166398094Y-121782619D01*
X166188571Y-121782619D01*
X166083809Y-121730238D01*
X165979047Y-121625476D01*
X165926666Y-121415952D01*
X165926666Y-121049286D01*
X165979047Y-120839762D01*
X166083809Y-120735000D01*
X166188571Y-120682619D01*
X167079047Y-121468333D02*
X167602856Y-121468333D01*
X166974285Y-121782619D02*
X167340952Y-120682619D01*
X167707618Y-121782619D01*
X168702856Y-121782619D02*
X168336190Y-121258810D01*
X168074285Y-121782619D02*
X168074285Y-120682619D01*
X168493332Y-120682619D01*
X168598094Y-120735000D01*
X168650475Y-120787381D01*
X168702856Y-120892143D01*
X168702856Y-121049286D01*
X168650475Y-121154048D01*
X168598094Y-121206429D01*
X168493332Y-121258810D01*
X168074285Y-121258810D01*
X169174285Y-121782619D02*
X169174285Y-120682619D01*
X169436190Y-120682619D01*
X169593332Y-120735000D01*
X169698094Y-120839762D01*
X169750475Y-120944524D01*
X169802856Y-121154048D01*
X169802856Y-121311190D01*
X169750475Y-121520714D01*
X169698094Y-121625476D01*
X169593332Y-121730238D01*
X169436190Y-121782619D01*
X169174285Y-121782619D01*
D14*
X147543334Y-112815714D02*
X147733810Y-113482381D01*
X147924287Y-113006190D01*
X148114763Y-113482381D01*
X148305239Y-112815714D01*
X148590953Y-112815714D02*
X148781429Y-113482381D01*
X148971906Y-113006190D01*
X149162382Y-113482381D01*
X149352858Y-112815714D01*
X149638572Y-112815714D02*
X149829048Y-113482381D01*
X150019525Y-113006190D01*
X150210001Y-113482381D01*
X150400477Y-112815714D01*
X150781429Y-113387143D02*
X150829048Y-113434762D01*
X150781429Y-113482381D01*
X150733810Y-113434762D01*
X150781429Y-113387143D01*
X150781429Y-113482381D01*
X151257619Y-112815714D02*
X151257619Y-113672857D01*
X151210000Y-113768095D01*
X151114762Y-113815714D01*
X151067143Y-113815714D01*
X151257619Y-112482381D02*
X151210000Y-112530000D01*
X151257619Y-112577619D01*
X151305238Y-112530000D01*
X151257619Y-112482381D01*
X151257619Y-112577619D01*
X152162381Y-113482381D02*
X152162381Y-112958571D01*
X152114762Y-112863333D01*
X152019524Y-112815714D01*
X151829047Y-112815714D01*
X151733809Y-112863333D01*
X152162381Y-113434762D02*
X152067143Y-113482381D01*
X151829047Y-113482381D01*
X151733809Y-113434762D01*
X151686190Y-113339524D01*
X151686190Y-113244286D01*
X151733809Y-113149048D01*
X151829047Y-113101429D01*
X152067143Y-113101429D01*
X152162381Y-113053810D01*
X152590952Y-113434762D02*
X152686190Y-113482381D01*
X152876666Y-113482381D01*
X152971905Y-113434762D01*
X153019524Y-113339524D01*
X153019524Y-113291905D01*
X152971905Y-113196667D01*
X152876666Y-113149048D01*
X152733809Y-113149048D01*
X152638571Y-113101429D01*
X152590952Y-113006190D01*
X152590952Y-112958571D01*
X152638571Y-112863333D01*
X152733809Y-112815714D01*
X152876666Y-112815714D01*
X152971905Y-112863333D01*
X153590952Y-113482381D02*
X153495714Y-113434762D01*
X153448095Y-113387143D01*
X153400476Y-113291905D01*
X153400476Y-113006190D01*
X153448095Y-112910952D01*
X153495714Y-112863333D01*
X153590952Y-112815714D01*
X153733810Y-112815714D01*
X153829048Y-112863333D01*
X153876667Y-112910952D01*
X153924286Y-113006190D01*
X153924286Y-113291905D01*
X153876667Y-113387143D01*
X153829048Y-113434762D01*
X153733810Y-113482381D01*
X153590952Y-113482381D01*
X154352857Y-112815714D02*
X154352857Y-113482381D01*
X154352857Y-112910952D02*
X154400476Y-112863333D01*
X154495714Y-112815714D01*
X154638572Y-112815714D01*
X154733810Y-112863333D01*
X154781429Y-112958571D01*
X154781429Y-113482381D01*
X155686191Y-112815714D02*
X155686191Y-113625238D01*
X155638572Y-113720476D01*
X155590953Y-113768095D01*
X155495714Y-113815714D01*
X155352857Y-113815714D01*
X155257619Y-113768095D01*
X155686191Y-113434762D02*
X155590953Y-113482381D01*
X155400476Y-113482381D01*
X155305238Y-113434762D01*
X155257619Y-113387143D01*
X155210000Y-113291905D01*
X155210000Y-113006190D01*
X155257619Y-112910952D01*
X155305238Y-112863333D01*
X155400476Y-112815714D01*
X155590953Y-112815714D01*
X155686191Y-112863333D01*
X156162381Y-113482381D02*
X156162381Y-112815714D01*
X156162381Y-112482381D02*
X156114762Y-112530000D01*
X156162381Y-112577619D01*
X156210000Y-112530000D01*
X156162381Y-112482381D01*
X156162381Y-112577619D01*
X156781428Y-113482381D02*
X156686190Y-113434762D01*
X156638571Y-113339524D01*
X156638571Y-112482381D01*
X157162381Y-113482381D02*
X157162381Y-112482381D01*
X157590953Y-113482381D02*
X157590953Y-112958571D01*
X157543334Y-112863333D01*
X157448096Y-112815714D01*
X157305238Y-112815714D01*
X157210000Y-112863333D01*
X157162381Y-112910952D01*
X158210000Y-113482381D02*
X158114762Y-113434762D01*
X158067143Y-113387143D01*
X158019524Y-113291905D01*
X158019524Y-113006190D01*
X158067143Y-112910952D01*
X158114762Y-112863333D01*
X158210000Y-112815714D01*
X158352858Y-112815714D01*
X158448096Y-112863333D01*
X158495715Y-112910952D01*
X158543334Y-113006190D01*
X158543334Y-113291905D01*
X158495715Y-113387143D01*
X158448096Y-113434762D01*
X158352858Y-113482381D01*
X158210000Y-113482381D01*
X159114762Y-113482381D02*
X159019524Y-113434762D01*
X158971905Y-113339524D01*
X158971905Y-112482381D01*
X159495715Y-113482381D02*
X159495715Y-112815714D01*
X159495715Y-112910952D02*
X159543334Y-112863333D01*
X159638572Y-112815714D01*
X159781430Y-112815714D01*
X159876668Y-112863333D01*
X159924287Y-112958571D01*
X159924287Y-113482381D01*
X159924287Y-112958571D02*
X159971906Y-112863333D01*
X160067144Y-112815714D01*
X160210001Y-112815714D01*
X160305239Y-112863333D01*
X160352858Y-112958571D01*
X160352858Y-113482381D01*
X161210001Y-113434762D02*
X161114763Y-113482381D01*
X160924286Y-113482381D01*
X160829048Y-113434762D01*
X160781429Y-113339524D01*
X160781429Y-112958571D01*
X160829048Y-112863333D01*
X160924286Y-112815714D01*
X161114763Y-112815714D01*
X161210001Y-112863333D01*
X161257620Y-112958571D01*
X161257620Y-113053810D01*
X160781429Y-113149048D01*
X161686191Y-113387143D02*
X161733810Y-113434762D01*
X161686191Y-113482381D01*
X161638572Y-113434762D01*
X161686191Y-113387143D01*
X161686191Y-113482381D01*
X162590953Y-113434762D02*
X162495715Y-113482381D01*
X162305238Y-113482381D01*
X162210000Y-113434762D01*
X162162381Y-113387143D01*
X162114762Y-113291905D01*
X162114762Y-113006190D01*
X162162381Y-112910952D01*
X162210000Y-112863333D01*
X162305238Y-112815714D01*
X162495715Y-112815714D01*
X162590953Y-112863333D01*
X163162381Y-113482381D02*
X163067143Y-113434762D01*
X163019524Y-113387143D01*
X162971905Y-113291905D01*
X162971905Y-113006190D01*
X163019524Y-112910952D01*
X163067143Y-112863333D01*
X163162381Y-112815714D01*
X163305239Y-112815714D01*
X163400477Y-112863333D01*
X163448096Y-112910952D01*
X163495715Y-113006190D01*
X163495715Y-113291905D01*
X163448096Y-113387143D01*
X163400477Y-113434762D01*
X163305239Y-113482381D01*
X163162381Y-113482381D01*
X163924286Y-113482381D02*
X163924286Y-112815714D01*
X163924286Y-112910952D02*
X163971905Y-112863333D01*
X164067143Y-112815714D01*
X164210001Y-112815714D01*
X164305239Y-112863333D01*
X164352858Y-112958571D01*
X164352858Y-113482381D01*
X164352858Y-112958571D02*
X164400477Y-112863333D01*
X164495715Y-112815714D01*
X164638572Y-112815714D01*
X164733810Y-112863333D01*
X164781429Y-112958571D01*
X164781429Y-113482381D01*
X151130000Y-116840000D02*
X146050000Y-116840000D01*
X146050000Y-116840000D02*
X146050000Y-114300000D01*
X146050000Y-114300000D02*
X151130000Y-114300000D01*
X151130000Y-114300000D02*
X151130000Y-116840000D01*
X151130000Y-115570000D02*
X152400000Y-115570000D01*
X146050000Y-115570000D02*
X144780000Y-115570000D01*
X143510000Y-96520000D02*
X148590000Y-96520000D01*
X148590000Y-96520000D02*
X148590000Y-99060000D01*
X148590000Y-99060000D02*
X143510000Y-99060000D01*
X143510000Y-99060000D02*
X143510000Y-96520000D01*
X143510000Y-97790000D02*
X142240000Y-97790000D01*
X148590000Y-97790000D02*
X149860000Y-97790000D01*
X168910000Y-99060000D02*
X163830000Y-99060000D01*
X163830000Y-99060000D02*
X163830000Y-96520000D01*
X163830000Y-96520000D02*
X168910000Y-96520000D01*
X168910000Y-96520000D02*
X168910000Y-99060000D01*
X168910000Y-97790000D02*
X170180000Y-97790000D01*
X163830000Y-97790000D02*
X162560000Y-97790000D01*
X166370000Y-116840000D02*
X161290000Y-116840000D01*
X161290000Y-116840000D02*
X161290000Y-114300000D01*
X161290000Y-114300000D02*
X166370000Y-114300000D01*
X166370000Y-114300000D02*
X166370000Y-116840000D01*
X166370000Y-115570000D02*
X167640000Y-115570000D01*
X161290000Y-115570000D02*
X160020000Y-115570000D01*
X157837143Y-97956666D02*
X157884762Y-98004285D01*
X157932381Y-98147142D01*
X157932381Y-98242380D01*
X157884762Y-98385238D01*
X157789524Y-98480476D01*
X157694286Y-98528095D01*
X157503810Y-98575714D01*
X157360952Y-98575714D01*
X157170476Y-98528095D01*
X157075238Y-98480476D01*
X156980000Y-98385238D01*
X156932381Y-98242380D01*
X156932381Y-98147142D01*
X156980000Y-98004285D01*
X157027619Y-97956666D01*
X157932381Y-97004285D02*
X157932381Y-97575714D01*
X157932381Y-97290000D02*
X156932381Y-97290000D01*
X157075238Y-97385238D01*
X157170476Y-97480476D01*
X157218095Y-97575714D01*
D15*
G36*
X175133000Y-101473000D02*
X170307000Y-101473000D01*
X170307000Y-99187000D01*
X175133000Y-99187000D01*
X175133000Y-101473000D01*
X175133000Y-101473000D01*
G37*
X175133000Y-101473000D02*
X170307000Y-101473000D01*
X170307000Y-99187000D01*
X175133000Y-99187000D01*
X175133000Y-101473000D01*
G36*
X175133000Y-114173000D02*
X170307000Y-114173000D01*
X170307000Y-111887000D01*
X175133000Y-111887000D01*
X175133000Y-114173000D01*
X175133000Y-114173000D01*
G37*
X175133000Y-114173000D02*
X170307000Y-114173000D01*
X170307000Y-111887000D01*
X175133000Y-111887000D01*
X175133000Y-114173000D01*
G36*
X142113000Y-114173000D02*
X137287000Y-114173000D01*
X137287000Y-111887000D01*
X142113000Y-111887000D01*
X142113000Y-114173000D01*
X142113000Y-114173000D01*
G37*
X142113000Y-114173000D02*
X137287000Y-114173000D01*
X137287000Y-111887000D01*
X142113000Y-111887000D01*
X142113000Y-114173000D01*
G36*
X142113000Y-101473000D02*
X137287000Y-101473000D01*
X137287000Y-99187000D01*
X142113000Y-99187000D01*
X142113000Y-101473000D01*
X142113000Y-101473000D01*
G37*
X142113000Y-101473000D02*
X137287000Y-101473000D01*
X137287000Y-99187000D01*
X142113000Y-99187000D01*
X142113000Y-101473000D01*
M02*
