M48
;DRILL file {KiCad 4.0.0-rc2-stable} date Sun 15 Nov 2015 10:32:57 AEDT
;FORMAT={3:3/ absolute / metric / keep zeros}
FMAT,2
METRIC,TZ
T1C0.400
T2C0.762
T3C0.800
T4C0.800
T5C1.001
T6C1.016
T7C1.500
T8C3.000
%
G90
G05
M71
T1
X144780Y-090805
X144780Y-102870
X151130Y-097790
X156210Y-106680
X160020Y-107950
X161290Y-097790
T2
X131200Y-076835
X131200Y-136525
X139700Y-076835
X139700Y-136525
X148200Y-076835
X148200Y-136525
X164220Y-076835
X164220Y-136525
X172720Y-076835
X172720Y-136525
X181220Y-076835
X181220Y-136525
T3
X147320Y-102870
X147320Y-110490
X149860Y-102870
X149860Y-110490
X152400Y-102870
X152400Y-110490
X154940Y-102870
X154940Y-110490
X156210Y-096520
X157480Y-102870
X157480Y-110490
X160020Y-102870
X160020Y-110490
X162560Y-102870
X162560Y-110490
X165100Y-102870
X165100Y-110490
T4
X156210Y-099020
T5
X137160Y-083820
X137160Y-129540
X139700Y-083820
X139700Y-129540
X140970Y-097790
X142240Y-083820
X142240Y-129540
X143510Y-115570
X151130Y-097790
X153670Y-115570
X158750Y-115570
X161290Y-097790
X168910Y-115570
X170180Y-083820
X170180Y-129540
X171450Y-097790
X172720Y-083820
X172720Y-129540
X175260Y-083820
X175260Y-129540
T6
X131445Y-095250
X131445Y-097790
X131445Y-115570
X131445Y-118110
X133985Y-095250
X133985Y-097790
X133985Y-115570
X133985Y-118110
X139700Y-119380
X140970Y-102870
X140970Y-105410
X140970Y-107950
X140970Y-110490
X151130Y-093980
X161290Y-093980
X171450Y-102870
X171450Y-105410
X171450Y-107950
X171450Y-110490
X172720Y-119380
X178435Y-095250
X178435Y-097790
X178435Y-115570
X178435Y-118110
X180975Y-095250
X180975Y-097790
X180975Y-115570
X180975Y-118110
T7
X130450Y-080280
X130450Y-133080
X148950Y-080280
X148950Y-133080
X163470Y-080280
X163470Y-133080
X181970Y-080280
X181970Y-133080
T8
X132080Y-106680
X156210Y-081280
X156210Y-132080
X180340Y-106680
T0
M30
