M48
;DRILL file {KiCad 4.0.0-rc2-stable} date Sun 15 Nov 2015 10:11:25 AEDT
;FORMAT={-:-/ absolute / metric / decimal}
FMAT,2
METRIC,TZ
T1C0.400
T2C0.800
T3C0.800
T4C0.813
T5C1.016
T6C3.000
%
G90
G05
M71
T1
X95.25Y-93.98
X95.25Y-101.6
X103.505Y-88.9
X106.045Y-88.9
X109.22Y-97.79
X110.49Y-88.9
X111.76Y-99.06
X120.65Y-88.9
X125.73Y-93.98
X133.35Y-105.41
X135.89Y-88.9
X139.7Y-97.79
X142.24Y-99.06
X143.51Y-88.9
X156.21Y-93.98
X166.37Y-88.9
X167.64Y-97.79
X171.45Y-88.9
X171.45Y-99.06
X184.15Y-116.84
T2
X99.06Y-93.98
X99.06Y-101.6
X101.6Y-93.98
X101.6Y-101.6
X104.14Y-93.98
X104.14Y-101.6
X106.68Y-93.98
X106.68Y-101.6
X107.95Y-90.17
X109.22Y-93.98
X109.22Y-101.6
X111.76Y-93.98
X111.76Y-101.6
X114.3Y-93.98
X114.3Y-101.6
X116.84Y-93.98
X116.84Y-101.6
X129.54Y-93.98
X129.54Y-101.6
X132.08Y-93.98
X132.08Y-101.6
X134.62Y-93.98
X134.62Y-101.6
X137.16Y-93.98
X137.16Y-101.6
X138.43Y-90.17
X139.7Y-93.98
X139.7Y-101.6
X142.24Y-93.98
X142.24Y-101.6
X144.78Y-93.98
X144.78Y-101.6
X147.32Y-93.98
X147.32Y-101.6
X160.02Y-93.98
X160.02Y-101.6
X162.56Y-93.98
X162.56Y-101.6
X165.1Y-93.98
X165.1Y-101.6
X167.64Y-93.98
X167.64Y-101.6
X168.91Y-90.17
X170.18Y-93.98
X170.18Y-101.6
X172.72Y-93.98
X172.72Y-101.6
X175.26Y-93.98
X175.26Y-101.6
X177.8Y-93.98
X177.8Y-101.6
T3
X107.95Y-87.67
X138.43Y-87.67
X168.91Y-87.67
T4
X90.17Y-81.28
X90.17Y-88.9
X92.71Y-109.22
X92.71Y-116.84
X94.615Y-120.65
X95.25Y-78.74
X95.25Y-86.36
X97.79Y-74.93
X102.235Y-120.65
X105.41Y-74.93
X106.045Y-120.65
X110.49Y-74.93
X113.665Y-120.65
X117.475Y-120.65
X118.11Y-74.93
X123.19Y-81.28
X123.19Y-88.9
X123.19Y-109.22
X123.19Y-116.84
X125.095Y-120.65
X128.27Y-74.93
X128.905Y-120.65
X135.89Y-74.93
X136.525Y-120.65
X140.335Y-120.65
X140.97Y-74.93
X147.955Y-120.65
X148.59Y-74.93
X151.765Y-120.65
X153.67Y-81.28
X153.67Y-88.9
X153.67Y-109.22
X153.67Y-116.84
X158.75Y-74.93
X159.385Y-120.65
X163.195Y-120.65
X166.37Y-74.93
X170.815Y-120.65
X171.45Y-74.93
X174.625Y-120.65
X179.07Y-74.93
X181.61Y-78.74
X181.61Y-86.36
X182.245Y-120.65
X184.15Y-109.22
X184.15Y-116.84
X186.69Y-81.28
X186.69Y-88.9
T5
X84.455Y-73.66
X84.455Y-76.2
X84.455Y-119.38
X84.455Y-121.92
X85.09Y-82.55
X85.09Y-113.03
X86.995Y-73.66
X86.995Y-76.2
X86.995Y-119.38
X86.995Y-121.92
X87.63Y-93.98
X87.63Y-96.52
X87.63Y-99.06
X87.63Y-101.6
X92.71Y-74.93
X92.71Y-105.41
X100.33Y-82.55
X100.33Y-113.03
X115.57Y-82.55
X115.57Y-113.03
X123.19Y-74.93
X123.19Y-105.41
X130.81Y-82.55
X130.81Y-113.03
X146.05Y-82.55
X146.05Y-113.03
X153.67Y-74.93
X153.67Y-105.41
X161.29Y-82.55
X161.29Y-113.03
X176.53Y-82.55
X176.53Y-113.03
X184.15Y-74.93
X184.15Y-105.41
X189.23Y-93.98
X189.23Y-96.52
X189.23Y-99.06
X189.23Y-101.6
X189.865Y-73.66
X189.865Y-76.2
X189.865Y-119.38
X189.865Y-121.92
X191.77Y-82.55
X191.77Y-113.03
X192.405Y-73.66
X192.405Y-76.2
X192.405Y-119.38
X192.405Y-121.92
T6
X107.95Y-82.55
X107.95Y-113.03
X168.91Y-82.55
X168.91Y-113.03
T0
M30
