G04 #@! TF.FileFunction,Legend,Bot*
%FSLAX46Y46*%
G04 Gerber Fmt 4.6, Leading zero omitted, Abs format (unit mm)*
G04 Created by KiCad (PCBNEW 4.0.0-rc2-stable) date Sun 15 Nov 2015 10:11:19 AEDT*
%MOMM*%
G01*
G04 APERTURE LIST*
%ADD10C,0.100000*%
%ADD11C,0.200000*%
%ADD12C,0.300000*%
%ADD13C,0.150000*%
%ADD14C,0.254000*%
G04 APERTURE END LIST*
D10*
D11*
X84592381Y-100697142D02*
X85692381Y-100697142D01*
X85692381Y-100435237D01*
X85640000Y-100278095D01*
X85535238Y-100173333D01*
X85430476Y-100120952D01*
X85220952Y-100068571D01*
X85063810Y-100068571D01*
X84854286Y-100120952D01*
X84749524Y-100173333D01*
X84644762Y-100278095D01*
X84592381Y-100435237D01*
X84592381Y-100697142D01*
X84906667Y-99649523D02*
X84906667Y-99125714D01*
X84592381Y-99754285D02*
X85692381Y-99387618D01*
X84592381Y-99020952D01*
X85692381Y-98811428D02*
X85692381Y-98182857D01*
X84592381Y-98497142D02*
X85692381Y-98497142D01*
X84906667Y-97868571D02*
X84906667Y-97344762D01*
X84592381Y-97973333D02*
X85692381Y-97606666D01*
X84592381Y-97240000D01*
X84592381Y-96035238D02*
X85692381Y-96035238D01*
X84592381Y-95511428D02*
X85692381Y-95511428D01*
X84592381Y-94882857D01*
X85692381Y-94882857D01*
X192267619Y-94149525D02*
X191167619Y-94149525D01*
X191167619Y-94411430D01*
X191220000Y-94568572D01*
X191324762Y-94673334D01*
X191429524Y-94725715D01*
X191639048Y-94778096D01*
X191796190Y-94778096D01*
X192005714Y-94725715D01*
X192110476Y-94673334D01*
X192215238Y-94568572D01*
X192267619Y-94411430D01*
X192267619Y-94149525D01*
X191953333Y-95197144D02*
X191953333Y-95720953D01*
X192267619Y-95092382D02*
X191167619Y-95459049D01*
X192267619Y-95825715D01*
X191167619Y-96035239D02*
X191167619Y-96663810D01*
X192267619Y-96349525D02*
X191167619Y-96349525D01*
X191953333Y-96978096D02*
X191953333Y-97501905D01*
X192267619Y-96873334D02*
X191167619Y-97240001D01*
X192267619Y-97606667D01*
X191167619Y-99020953D02*
X191167619Y-99230476D01*
X191220000Y-99335238D01*
X191324762Y-99440000D01*
X191534286Y-99492381D01*
X191900952Y-99492381D01*
X192110476Y-99440000D01*
X192215238Y-99335238D01*
X192267619Y-99230476D01*
X192267619Y-99020953D01*
X192215238Y-98916191D01*
X192110476Y-98811429D01*
X191900952Y-98759048D01*
X191534286Y-98759048D01*
X191324762Y-98811429D01*
X191220000Y-98916191D01*
X191167619Y-99020953D01*
X191167619Y-99963810D02*
X192058095Y-99963810D01*
X192162857Y-100016191D01*
X192215238Y-100068572D01*
X192267619Y-100173334D01*
X192267619Y-100382857D01*
X192215238Y-100487619D01*
X192162857Y-100540000D01*
X192058095Y-100592381D01*
X191167619Y-100592381D01*
X191167619Y-100959048D02*
X191167619Y-101587619D01*
X192267619Y-101273334D02*
X191167619Y-101273334D01*
D12*
X192976428Y-116947143D02*
X191833571Y-116947143D01*
X190436428Y-116947143D02*
X189293571Y-116947143D01*
X189865000Y-117518571D02*
X189865000Y-116375714D01*
X190436428Y-78847143D02*
X189293571Y-78847143D01*
X189865000Y-79418571D02*
X189865000Y-78275714D01*
X192976428Y-78847143D02*
X191833571Y-78847143D01*
X87566428Y-78847143D02*
X86423571Y-78847143D01*
X85026428Y-78847143D02*
X83883571Y-78847143D01*
X84455000Y-79418571D02*
X84455000Y-78275714D01*
X87566428Y-116947143D02*
X86423571Y-116947143D01*
X85026428Y-116947143D02*
X83883571Y-116947143D01*
X84455000Y-117518571D02*
X84455000Y-116375714D01*
D11*
X193675000Y-72390000D02*
X193675000Y-77470000D01*
X188595000Y-72390000D02*
X193675000Y-72390000D01*
X188595000Y-77470000D02*
X188595000Y-72390000D01*
X193675000Y-77470000D02*
X188595000Y-77470000D01*
X193675000Y-80010000D02*
X193675000Y-77470000D01*
X188595000Y-80010000D02*
X193675000Y-80010000D01*
X188595000Y-77470000D02*
X188595000Y-80010000D01*
X193040000Y-92710000D02*
X193040000Y-102870000D01*
X190500000Y-102870000D02*
X190500000Y-92710000D01*
X187960000Y-105410000D02*
X187960000Y-102870000D01*
X193040000Y-105410000D02*
X187960000Y-105410000D01*
X193040000Y-102870000D02*
X193040000Y-105410000D01*
X187960000Y-102870000D02*
X193040000Y-102870000D01*
X187960000Y-92710000D02*
X187960000Y-102870000D01*
X193040000Y-92710000D02*
X187960000Y-92710000D01*
X193040000Y-90170000D02*
X193040000Y-92710000D01*
X187960000Y-90170000D02*
X193040000Y-90170000D01*
X187960000Y-92710000D02*
X187960000Y-90170000D01*
X193675000Y-115570000D02*
X193675000Y-118110000D01*
X188595000Y-115570000D02*
X193675000Y-115570000D01*
X188595000Y-118110000D02*
X188595000Y-115570000D01*
X188595000Y-123190000D02*
X188595000Y-118110000D01*
X193675000Y-123190000D02*
X188595000Y-123190000D01*
X193675000Y-118110000D02*
X193675000Y-123190000D01*
X188595000Y-118110000D02*
X193675000Y-118110000D01*
X88265000Y-118110000D02*
X87630000Y-118110000D01*
X88265000Y-115570000D02*
X88265000Y-118110000D01*
X83185000Y-115570000D02*
X88265000Y-115570000D01*
X83185000Y-118110000D02*
X83185000Y-115570000D01*
X88265000Y-118110000D02*
X83185000Y-118110000D01*
X88265000Y-123190000D02*
X88265000Y-118110000D01*
X83185000Y-123190000D02*
X88265000Y-123190000D01*
X83185000Y-118110000D02*
X83185000Y-123190000D01*
X88265000Y-80010000D02*
X88265000Y-77470000D01*
X83185000Y-80010000D02*
X88265000Y-80010000D01*
X83185000Y-77470000D02*
X83185000Y-80010000D01*
X88265000Y-77470000D02*
X83185000Y-77470000D01*
X88265000Y-72390000D02*
X88265000Y-77470000D01*
X83185000Y-72390000D02*
X88265000Y-72390000D01*
X83185000Y-77470000D02*
X83185000Y-72390000D01*
X83820000Y-102870000D02*
X88900000Y-102870000D01*
X86360000Y-92710000D02*
X86360000Y-102870000D01*
X83820000Y-92710000D02*
X88900000Y-92710000D01*
X83820000Y-105410000D02*
X83820000Y-90170000D01*
X88900000Y-105410000D02*
X83820000Y-105410000D01*
X88900000Y-90170000D02*
X88900000Y-105410000D01*
X83820000Y-90170000D02*
X88900000Y-90170000D01*
D13*
X146477619Y-78525714D02*
X146239524Y-79192381D01*
X146001428Y-78525714D01*
X145096666Y-79192381D02*
X145668095Y-79192381D01*
X145382381Y-79192381D02*
X145382381Y-78192381D01*
X145477619Y-78335238D01*
X145572857Y-78430476D01*
X145668095Y-78478095D01*
X144668095Y-79097143D02*
X144620476Y-79144762D01*
X144668095Y-79192381D01*
X144715714Y-79144762D01*
X144668095Y-79097143D01*
X144668095Y-79192381D01*
X144001429Y-78192381D02*
X143906190Y-78192381D01*
X143810952Y-78240000D01*
X143763333Y-78287619D01*
X143715714Y-78382857D01*
X143668095Y-78573333D01*
X143668095Y-78811429D01*
X143715714Y-79001905D01*
X143763333Y-79097143D01*
X143810952Y-79144762D01*
X143906190Y-79192381D01*
X144001429Y-79192381D01*
X144096667Y-79144762D01*
X144144286Y-79097143D01*
X144191905Y-79001905D01*
X144239524Y-78811429D01*
X144239524Y-78573333D01*
X144191905Y-78382857D01*
X144144286Y-78287619D01*
X144096667Y-78240000D01*
X144001429Y-78192381D01*
X142477619Y-79192381D02*
X142477619Y-78192381D01*
X141906190Y-79192381D01*
X141906190Y-78192381D01*
X141239524Y-78192381D02*
X141049047Y-78192381D01*
X140953809Y-78240000D01*
X140858571Y-78335238D01*
X140810952Y-78525714D01*
X140810952Y-78859048D01*
X140858571Y-79049524D01*
X140953809Y-79144762D01*
X141049047Y-79192381D01*
X141239524Y-79192381D01*
X141334762Y-79144762D01*
X141430000Y-79049524D01*
X141477619Y-78859048D01*
X141477619Y-78525714D01*
X141430000Y-78335238D01*
X141334762Y-78240000D01*
X141239524Y-78192381D01*
X140525238Y-78192381D02*
X140191905Y-79192381D01*
X139858571Y-78192381D01*
X139525238Y-78668571D02*
X139191904Y-78668571D01*
X139049047Y-79192381D02*
X139525238Y-79192381D01*
X139525238Y-78192381D01*
X139049047Y-78192381D01*
X138620476Y-79192381D02*
X138620476Y-78192381D01*
X138287142Y-78906667D01*
X137953809Y-78192381D01*
X137953809Y-79192381D01*
X137144285Y-78668571D02*
X137001428Y-78716190D01*
X136953809Y-78763810D01*
X136906190Y-78859048D01*
X136906190Y-79001905D01*
X136953809Y-79097143D01*
X137001428Y-79144762D01*
X137096666Y-79192381D01*
X137477619Y-79192381D01*
X137477619Y-78192381D01*
X137144285Y-78192381D01*
X137049047Y-78240000D01*
X137001428Y-78287619D01*
X136953809Y-78382857D01*
X136953809Y-78478095D01*
X137001428Y-78573333D01*
X137049047Y-78620952D01*
X137144285Y-78668571D01*
X137477619Y-78668571D01*
X136477619Y-78668571D02*
X136144285Y-78668571D01*
X136001428Y-79192381D02*
X136477619Y-79192381D01*
X136477619Y-78192381D01*
X136001428Y-78192381D01*
X135001428Y-79192381D02*
X135334762Y-78716190D01*
X135572857Y-79192381D02*
X135572857Y-78192381D01*
X135191904Y-78192381D01*
X135096666Y-78240000D01*
X135049047Y-78287619D01*
X135001428Y-78382857D01*
X135001428Y-78525714D01*
X135049047Y-78620952D01*
X135096666Y-78668571D01*
X135191904Y-78716190D01*
X135572857Y-78716190D01*
X133858571Y-78287619D02*
X133810952Y-78240000D01*
X133715714Y-78192381D01*
X133477618Y-78192381D01*
X133382380Y-78240000D01*
X133334761Y-78287619D01*
X133287142Y-78382857D01*
X133287142Y-78478095D01*
X133334761Y-78620952D01*
X133906190Y-79192381D01*
X133287142Y-79192381D01*
X132668095Y-78192381D02*
X132572856Y-78192381D01*
X132477618Y-78240000D01*
X132429999Y-78287619D01*
X132382380Y-78382857D01*
X132334761Y-78573333D01*
X132334761Y-78811429D01*
X132382380Y-79001905D01*
X132429999Y-79097143D01*
X132477618Y-79144762D01*
X132572856Y-79192381D01*
X132668095Y-79192381D01*
X132763333Y-79144762D01*
X132810952Y-79097143D01*
X132858571Y-79001905D01*
X132906190Y-78811429D01*
X132906190Y-78573333D01*
X132858571Y-78382857D01*
X132810952Y-78287619D01*
X132763333Y-78240000D01*
X132668095Y-78192381D01*
X131382380Y-79192381D02*
X131953809Y-79192381D01*
X131668095Y-79192381D02*
X131668095Y-78192381D01*
X131763333Y-78335238D01*
X131858571Y-78430476D01*
X131953809Y-78478095D01*
X130477618Y-78192381D02*
X130953809Y-78192381D01*
X131001428Y-78668571D01*
X130953809Y-78620952D01*
X130858571Y-78573333D01*
X130620475Y-78573333D01*
X130525237Y-78620952D01*
X130477618Y-78668571D01*
X130429999Y-78763810D01*
X130429999Y-79001905D01*
X130477618Y-79097143D01*
X130525237Y-79144762D01*
X130620475Y-79192381D01*
X130858571Y-79192381D01*
X130953809Y-79144762D01*
X131001428Y-79097143D01*
D14*
G36*
X192913000Y-105283000D02*
X188087000Y-105283000D01*
X188087000Y-102997000D01*
X192913000Y-102997000D01*
X192913000Y-105283000D01*
X192913000Y-105283000D01*
G37*
X192913000Y-105283000D02*
X188087000Y-105283000D01*
X188087000Y-102997000D01*
X192913000Y-102997000D01*
X192913000Y-105283000D01*
G36*
X192913000Y-92583000D02*
X188087000Y-92583000D01*
X188087000Y-90297000D01*
X192913000Y-90297000D01*
X192913000Y-92583000D01*
X192913000Y-92583000D01*
G37*
X192913000Y-92583000D02*
X188087000Y-92583000D01*
X188087000Y-90297000D01*
X192913000Y-90297000D01*
X192913000Y-92583000D01*
G36*
X88773000Y-92583000D02*
X83947000Y-92583000D01*
X83947000Y-90297000D01*
X88773000Y-90297000D01*
X88773000Y-92583000D01*
X88773000Y-92583000D01*
G37*
X88773000Y-92583000D02*
X83947000Y-92583000D01*
X83947000Y-90297000D01*
X88773000Y-90297000D01*
X88773000Y-92583000D01*
G36*
X88773000Y-105283000D02*
X83947000Y-105283000D01*
X83947000Y-102997000D01*
X88773000Y-102997000D01*
X88773000Y-105283000D01*
X88773000Y-105283000D01*
G37*
X88773000Y-105283000D02*
X83947000Y-105283000D01*
X83947000Y-102997000D01*
X88773000Y-102997000D01*
X88773000Y-105283000D01*
M02*
